<?xml version="1.0" standalone="no"?>
<svg version="1.0" xmlns="http://www.w3.org/2000/svg"
 width="512" height="512" viewBox="100 100 824 824"
 preserveAspectRatio="xMidYMid meet">

<g transform="translate(0.000000,1024.000000) scale(0.100000,-0.100000)"
fill="#8B4513" stroke="none">
<path d="M2405 9364 c-595 -92 -1111 -474 -1370 -1016 -105 -220 -157 -423
-176 -686 -7 -99 -9 -1069 -6 -2942 3 -2602 4 -2801 20 -2879 34 -164 98 -319
183 -448 143 -215 372 -393 608 -473 190 -65 -74 -61 3496 -58 l3245 3 95 28
c126 36 299 122 397 196 146 110 286 277 366 436 38 78 84 221 104 325 17 90
18 248 18 2965 0 3115 3 2946 -56 3186 -88 361 -290 691 -574 936 -271 235
-585 379 -928 428 -149 21 -5284 20 -5422 -1z m3264 -1979 c202 -39 445 -145
612 -269 122 -90 364 -319 491 -465 176 -201 219 -309 197 -501 -7 -58 -9
-122 -5 -142 11 -62 114 -158 168 -158 8 0 45 20 82 45 62 40 75 45 128 45 84
0 124 -25 250 -154 161 -164 186 -219 153 -333 -16 -57 -25 -66 -418 -460
-227 -228 -417 -410 -437 -420 -55 -26 -139 -29 -192 -5 -53 23 -242 201 -287
269 -33 49 -47 113 -36 162 3 17 24 56 46 88 49 73 51 113 9 171 -42 58 -102
99 -167 113 -49 11 -66 10 -152 -9 -53 -12 -122 -22 -154 -22 -105 0 -139 25
-449 337 -237 238 -278 284 -287 320 -17 64 -4 117 45 183 24 33 58 85 76 117
29 51 33 67 33 133 0 95 -19 135 -100 216 -45 44 -87 73 -156 107 -163 80
-211 89 -467 94 l-223 5 -34 33 c-31 29 -35 38 -35 84 0 44 4 56 33 86 38 40
188 133 305 188 166 78 398 142 577 161 77 8 311 -4 394 -19z m-340 -1889
c205 -205 281 -288 275 -297 -8 -14 -211 -257 -574 -689 -372 -442 -1152
-1371 -1307 -1556 -185 -220 -240 -272 -346 -324 -119 -58 -191 -74 -312 -67
-162 9 -294 67 -405 177 -183 183 -231 464 -120 699 59 125 28 93 700 706 151
138 409 374 575 525 938 858 1215 1110 1224 1110 3 0 134 -128 290 -284z"/>
</g>
</svg>
